<?xml version="1.0" encoding="iso-8859-1"?>
<!-- Uploaded to: SVG Repo, www.svgrepo.com, Generator: SVG Repo Mixer Tools -->
<svg height="800px" width="800px" version="1.1" id="Layer_1" xmlns="http://www.w3.org/2000/svg" xmlns:xlink="http://www.w3.org/1999/xlink" 
	 viewBox="0 0 512.001 512.001" xml:space="preserve">
<path style="fill:#F4C356;" d="M246.301,263.432h201.941c0.082-2.467,0.139-4.942,0.139-7.43
	c0-121.501-98.495-219.996-219.996-219.996S8.388,134.501,8.388,256.002s98.495,219.996,219.996,219.996
	c63.418,0,120.557-26.844,160.705-69.777L246.301,263.432z"/>
<path style="fill:#F7CF6D;" d="M245.802,263.225h182.779c0.085-2.398,0.143-4.804,0.143-7.224
	c0-110.645-89.695-200.339-200.339-200.339S28.046,145.358,28.046,256.002s89.695,200.339,200.339,200.339
	c57.915,0,110.08-24.584,146.656-63.875L245.802,263.225z"/>
<path style="fill:#F9DE8F;" d="M246.301,263.432h163.42c0.1-2.465,0.163-4.941,0.163-7.43c0-100.239-81.26-181.499-181.499-181.499
	S46.887,155.763,46.887,256.002S128.146,437.5,228.385,437.5c52.786,0,100.302-22.542,133.466-58.516L246.301,263.432z"/>
<g>
	<circle style="fill:#F09EA0;" cx="178.619" cy="132.325" r="19.015"/>
	<circle style="fill:#F09EA0;" cx="102.212" cy="208.866" r="16.335"/>
	<circle style="fill:#F09EA0;" cx="275.608" cy="378.303" r="18.287"/>
	<circle style="fill:#F09EA0;" cx="178.619" cy="381.088" r="17.609"/>
	<circle style="fill:#F09EA0;" cx="348.268" cy="208.866" r="19.761"/>
	<circle style="fill:#F09EA0;" cx="102.928" cy="308.763" r="17.295"/>
	<circle style="fill:#F09EA0;" cx="275.608" cy="132.325" r="18.863"/>
</g>
<g>
	<circle style="fill:#F7CF6D;" cx="259.479" cy="173.7" r="8.202"/>
	<path style="fill:#F7CF6D;" d="M503.61,284.814H301.669l142.76,142.76l0.072-0.017c35.171-37.631,57.28-87.616,59.111-142.742
		L503.61,284.814z"/>
</g>
<path style="fill:#F4C356;" d="M503.61,284.814h-15.995c-3.189,50.247-23.24,95.902-54.565,131.382l11.378,11.378l0.072-0.017
	c35.171-37.631,57.28-87.616,59.111-142.742L503.61,284.814z"/>
<path style="fill:#F9DE8F;" d="M417.221,400.367c28.25-30.642,46.075-71.031,47.869-115.553H301.669L417.221,400.367z"/>
<circle style="fill:#F09EA0;" cx="405.314" cy="326.291" r="18.287"/>
<circle style="fill:#F7CF6D;" cx="359.957" cy="311.381" r="8.611"/>
<g>
	<circle style="fill:#EF8990;" cx="293.281" cy="229.302" r="7.672"/>
	<circle style="fill:#EF8990;" cx="195.42" cy="176.183" r="7.672"/>
	<circle style="fill:#EF8990;" cx="102.212" cy="164.259" r="7.672"/>
</g>
<g>
	<circle style="fill:#F7CF6D;" cx="157.233" cy="229.302" r="7.672"/>
	<circle style="fill:#F7CF6D;" cx="164.906" cy="279.692" r="7.672"/>
	<circle style="fill:#F7CF6D;" cx="75.311" cy="282.847" r="7.672"/>
	<circle style="fill:#F7CF6D;" cx="98.666" cy="349.758" r="7.672"/>
</g>
<circle style="fill:#EF8990;" cx="142.177" cy="377.184" r="7.672"/>
<g>
	<circle style="fill:#F7CF6D;" cx="203.093" cy="335.429" r="7.672"/>
	<circle style="fill:#F7CF6D;" cx="249.691" cy="414.924" r="7.672"/>
	<circle style="fill:#F7CF6D;" cx="320.137" cy="379.019" r="7.672"/>
</g>
<path d="M509.64,278.981c-1.581-1.633-3.756-2.556-6.03-2.556h-38.52c-3.874,0-8.359,2.122-8.359,7.794
	c0,0.086-0.02,0.17-0.023,0.257c-1.531,38.004-15.625,74.47-39.889,103.624l-94.897-94.897h36.825h51.137
	c4.633,0,8.389-3.755,8.389-8.389s-3.756-8.389-8.389-8.389h-51.137H301.67c-3.394,0-6.452,2.044-7.75,5.179
	c-1.299,3.135-0.581,6.743,1.819,9.143L411.29,406.3h0.001l27.207,27.207c1.586,1.586,3.765,2.443,5.979,2.443
	c0.63,0,1.262-0.069,1.885-0.21c1.636-0.371,3.124-1.226,4.269-2.452c37.741-40.38,59.534-93.01,61.365-148.193
	C512.07,282.821,511.22,280.615,509.64,278.981z M444.13,415.412l-15.406-15.406c25.486-30.122,40.979-67.521,44.247-106.804
	l21.789,0.001C491.405,338.291,473.664,381.118,444.13,415.412z"/>
<path d="M250.138,264.392l198.244-0.001h0.001c4.633,0,8.389-3.755,8.389-8.389c0-0.01-0.001-0.019-0.001-0.029
	c-0.008-62.458-25.226-119.131-66.002-160.398c-0.266-0.372-0.557-0.733-0.891-1.067c-0.334-0.334-0.695-0.625-1.066-0.891
	c-41.267-40.774-97.939-65.992-160.396-65.999c-0.01,0-0.019-0.001-0.029-0.001s-0.02,0.001-0.031,0.001
	c-36.36,0.004-72.541,8.767-104.63,25.341C103.09,63.614,84.084,77.528,67.541,93.925c-0.224,0.182-0.44,0.376-0.648,0.584
	c-0.157,0.157-0.299,0.321-0.44,0.487c-7.943,7.977-15.309,16.526-21.986,25.58c-2.749,3.729-1.956,8.981,1.772,11.731
	c3.728,2.75,8.981,1.957,11.731-1.773c4.65-6.304,9.664-12.342,14.988-18.095l15.424,15.424
	c-29.196,31.873-47.674,73.709-49.687,119.751H16.963c0.504-12.876,2.148-25.667,4.944-38.132c1.015-4.521-1.829-9.008-6.349-10.022
	c-4.518-1.013-9.008,1.829-10.022,6.35C1.862,222.182,0,239.069,0,256.002c0,94.566,60.709,181.481,149.366,214.287
	c25.243,9.341,52.107,14.097,79.019,14.097c60.806,0,117.858-23.568,160.939-66.391c0.189-0.159,0.376-0.322,0.554-0.501
	c0.145-0.145,0.275-0.299,0.408-0.452c0.237-0.238,0.48-0.469,0.716-0.709c3.243-3.287,3.217-8.579-0.056-11.836L250.138,264.392z
	 M16.959,264.391h21.735c2.012,46.041,20.489,87.877,49.685,119.75l-15.361,15.361C39.905,363.676,18.998,316.418,16.959,264.391z
	 M439.829,247.613h-21.75c-2.012-46.042-20.492-87.88-49.689-119.753l15.361-15.361
	C416.868,148.326,437.793,195.582,439.829,247.613z M356.521,139.728c26.173,28.817,42.786,66.466,44.774,107.884H248.637
	L356.521,139.728z M236.775,235.747V83.097c41.418,1.985,79.064,18.598,107.881,44.77L236.775,235.747z M219.996,428.905
	c-41.418-1.987-79.07-18.593-107.885-44.766l107.885-107.885V428.905z M236.775,276.255L344.7,384.181
	c-29.854,27.16-67.626,42.819-107.926,44.729V276.255z M356.525,115.995c-31.874-29.196-73.71-47.673-119.751-49.686V44.575
	c52.028,2.039,99.292,22.939,135.118,56.053L356.525,115.995z M219.996,235.749L112.112,127.865
	c28.816-26.173,66.466-42.779,107.884-44.765V235.749z M100.247,372.275c-26.172-28.816-42.776-66.466-44.763-107.883H208.13
	L100.247,372.275z M100.245,396.006c31.873,29.197,73.709,47.675,119.752,49.689v21.734c-52.028-2.039-99.286-22.946-135.112-56.062
	L100.245,396.006z M236.775,445.698c44.783-1.934,86.759-19.329,119.8-49.643l15.372,15.372
	c-37.157,34.405-84.549,54.049-135.172,56.006L236.775,445.698L236.775,445.698z M131.423,67.866
	c27.677-14.295,57.438-22.101,88.574-23.291V66.31c-46.041,2.012-87.878,20.491-119.751,49.688L84.837,100.59
	C98.837,87.659,114.542,76.585,131.423,67.866z M100.248,139.73l107.884,107.884H55.484
	C57.471,206.195,74.076,168.545,100.248,139.73z"/>
<path d="M178.617,157.018c14.288,0,25.913-11.625,25.913-25.913c0-14.287-11.625-25.912-25.913-25.912
	c-14.288,0-25.913,11.625-25.913,25.912C152.704,145.394,164.329,157.018,178.617,157.018z M178.617,121.971
	c5.037,0,9.135,4.097,9.135,9.134c0,5.037-4.098,9.135-9.135,9.135c-5.037,0-9.135-4.098-9.135-9.135
	C169.482,126.068,173.58,121.971,178.617,121.971z"/>
<path d="M102.928,181.732c-14.288,0-25.913,11.625-25.913,25.913s11.625,25.913,25.913,25.913s25.913-11.625,25.913-25.913
	C128.841,193.357,117.216,181.732,102.928,181.732z M102.928,216.78c-5.037,0-9.135-4.098-9.135-9.135s4.098-9.135,9.135-9.135
	c5.037,0,9.135,4.098,9.135,9.135S107.965,216.78,102.928,216.78z"/>
<path d="M102.928,333.456c14.288,0,25.913-11.625,25.913-25.913c0-14.287-11.625-25.912-25.913-25.912s-25.913,11.625-25.913,25.912
	C77.016,321.831,88.64,333.456,102.928,333.456z M102.928,298.409c5.037,0,9.135,4.097,9.135,9.134s-4.098,9.135-9.135,9.135
	c-5.037,0-9.135-4.098-9.135-9.135S97.891,298.409,102.928,298.409z"/>
<path d="M178.617,405.783c14.288,0,25.913-11.625,25.913-25.912c0-14.288-11.625-25.913-25.913-25.913
	c-14.288,0-25.913,11.625-25.913,25.913C152.704,394.158,164.329,405.783,178.617,405.783z M178.617,370.736
	c5.037,0,9.135,4.098,9.135,9.135s-4.098,9.134-9.135,9.134c-5.037,0-9.135-4.097-9.135-9.134S173.58,370.736,178.617,370.736z"/>
<path d="M275.602,351.161c-14.288,0-25.913,11.625-25.913,25.913c0,14.288,11.625,25.913,25.913,25.913
	c14.288,0,25.913-11.625,25.913-25.913C301.516,362.786,289.891,351.161,275.602,351.161z M275.602,386.21
	c-5.037,0-9.135-4.098-9.135-9.135c0-5.037,4.098-9.135,9.135-9.135c5.037,0,9.135,4.098,9.135,9.135
	C284.737,382.111,280.639,386.21,275.602,386.21z"/>
<path d="M348.266,233.558c14.288,0,25.913-11.625,25.913-25.913c0-14.288-11.625-25.913-25.913-25.913s-25.913,11.625-25.913,25.913
	C322.353,221.933,333.978,233.558,348.266,233.558z M348.266,198.51c5.037,0,9.135,4.098,9.135,9.135s-4.098,9.135-9.135,9.135
	s-9.135-4.098-9.135-9.135S343.229,198.51,348.266,198.51z"/>
<path d="M379.398,325.067c0,14.288,11.625,25.913,25.913,25.913s25.913-11.625,25.913-25.913s-11.625-25.913-25.913-25.913
	S379.398,310.778,379.398,325.067z M414.447,325.067c0,5.037-4.098,9.135-9.135,9.135s-9.135-4.098-9.135-9.135
	s4.098-9.135,9.135-9.135S414.447,320.03,414.447,325.067z"/>
<path d="M275.602,157.018c14.288,0,25.913-11.625,25.913-25.913c0-14.287-11.625-25.912-25.913-25.912
	c-14.288,0-25.913,11.625-25.913,25.912C249.69,145.394,261.314,157.018,275.602,157.018z M275.602,121.971
	c5.037,0,9.135,4.097,9.135,9.134c0,5.037-4.098,9.135-9.135,9.135c-5.037,0-9.135-4.098-9.135-9.135
	C266.467,126.068,270.566,121.971,275.602,121.971z"/>
</svg>